<svg width="25" height="24" viewBox="0 0 25 24" fill="none" xmlns="http://www.w3.org/2000/svg">
<g clip-path="url(#clip0_6305_9911)">
<path d="M24.7275 12.1123C24.7275 5.48488 19.355 0.112305 12.7275 0.112305C6.10012 0.112305 0.727539 5.48488 0.727539 12.1123C0.727539 18.1018 5.11574 23.0663 10.8525 23.9665V15.5811H7.80566V12.1123H10.8525V9.46856C10.8525 6.46106 12.6441 4.7998 15.3851 4.7998C16.6976 4.7998 18.0713 5.03418 18.0713 5.03418V7.9873H16.5582C15.0675 7.9873 14.6025 8.91238 14.6025 9.8623V12.1123H17.9307L17.3986 15.5811H14.6025V23.9665C20.3393 23.0663 24.7275 18.1018 24.7275 12.1123Z" fill="#A1A1AA"/>
</g>
<defs>
<clipPath id="clip0_6305_9911">
<rect width="24" height="23.8542" fill="white" transform="translate(0.727539 0.112305)"/>
</clipPath>
</defs>
</svg>
