<svg width="14" height="14" viewBox="0 0 14 14" fill="none" xmlns="http://www.w3.org/2000/svg">
<g clip-path="url(#clip0_6706_11635)">
<path d="M8.81494 5.03125C8.51758 3.1999 7.81621 1.91406 7 1.91406C6.18379 1.91406 5.48242 3.1999 5.18506 5.03125H8.81494ZM5.03125 7C5.03125 7.45527 5.05586 7.89209 5.09893 8.3125H8.89902C8.94209 7.89209 8.9667 7.45527 8.9667 7C8.9667 6.54473 8.94209 6.10791 8.89902 5.6875H5.09893C5.05586 6.10791 5.03125 6.54473 5.03125 7ZM11.6901 5.03125C11.1036 3.63877 9.91621 2.56211 8.4499 2.12734C8.95029 2.82051 9.29483 3.86436 9.47529 5.03125H11.6901ZM5.54805 2.12734C4.08379 2.56211 2.89434 3.63877 2.30986 5.03125H4.52471C4.70313 3.86436 5.04766 2.82051 5.54805 2.12734ZM11.9096 5.6875H9.55733C9.60039 6.11816 9.625 6.55908 9.625 7C9.625 7.44092 9.60039 7.88184 9.55733 8.3125H11.9075C12.0203 7.89209 12.0839 7.45527 12.0839 7C12.0839 6.54473 12.0203 6.10791 11.9096 5.6875ZM4.375 7C4.375 6.55908 4.39961 6.11816 4.44268 5.6875H2.09043C1.97969 6.10791 1.91406 6.54473 1.91406 7C1.91406 7.45527 1.97969 7.89209 2.09043 8.3125H4.44063C4.39961 7.88184 4.375 7.44092 4.375 7ZM5.18506 8.96875C5.48242 10.8001 6.18379 12.0859 7 12.0859C7.81621 12.0859 8.51758 10.8001 8.81494 8.96875H5.18506ZM8.45195 11.8727C9.91621 11.4379 11.1057 10.3612 11.6922 8.96875H9.47734C9.29688 10.1356 8.95234 11.1795 8.45195 11.8727ZM2.30986 8.96875C2.89639 10.3612 4.08379 11.4379 5.5501 11.8727C5.04971 11.1795 4.70518 10.1356 4.52471 8.96875H2.30986Z" fill="#3B82F6"/>
</g>
<defs>
<clipPath id="clip0_6706_11635">
<rect width="10.5" height="10.5" fill="white" transform="translate(1.75 1.75)"/>
</clipPath>
</defs>
</svg>
