<svg width="25" height="25" viewBox="0 0 25 25" fill="none" xmlns="http://www.w3.org/2000/svg">
<g clip-path="url(#clip0_6305_9923)">
<path fill-rule="evenodd" clip-rule="evenodd" d="M17.3448 6.58773C16.1058 5.40603 14.4523 4.76227 12.7414 4.78872C9.61083 4.78872 6.95201 6.90077 6.00399 9.74478V9.74484C5.50133 11.2352 5.50133 12.849 6.00399 14.3394H6.00839C6.96081 17.179 9.61523 19.291 12.7459 19.291C14.3619 19.291 15.7492 18.8777 16.8245 18.1476V18.1446C18.09 17.3069 18.9542 15.9885 19.2232 14.4981H12.7415V9.87714H24.0602C24.2013 10.6796 24.2675 11.4998 24.2675 12.3155C24.2675 15.9653 22.9631 19.0511 20.6935 21.1411L20.6959 21.143C18.7073 22.9772 15.9779 24.0399 12.7414 24.0399C8.20424 24.0399 4.05506 21.4825 2.01794 17.4303V17.4303C0.315954 14.0395 0.315959 10.0447 2.01796 6.6539H2.01798L2.01794 6.65387C4.05506 2.59728 8.20424 0.0398712 12.7414 0.0398712C15.7222 0.0045965 18.6014 1.12457 20.7708 3.16168L17.3448 6.58773Z" fill="#A1A1AA"/>
</g>
<defs>
<clipPath id="clip0_6305_9923">
<rect width="24" height="24.0008" fill="white" transform="translate(0.741455 0.0390625)"/>
</clipPath>
</defs>
</svg>
