<svg width="25" height="25" viewBox="0 0 25 25" fill="none" xmlns="http://www.w3.org/2000/svg">
<g clip-path="url(#clip0_6305_9915)">
<path d="M12.7415 2.20293C15.9477 2.20293 16.3274 2.21699 17.5883 2.27324C18.7602 2.3248 19.393 2.52168 19.8149 2.68574C20.3727 2.90137 20.7758 3.16387 21.193 3.58105C21.6149 4.00293 21.8727 4.40137 22.0883 4.95918C22.2524 5.38105 22.4493 6.01855 22.5008 7.18574C22.5571 8.45137 22.5711 8.83105 22.5711 12.0326C22.5711 15.2389 22.5571 15.6186 22.5008 16.8795C22.4493 18.0514 22.2524 18.6842 22.0883 19.1061C21.8727 19.6639 21.6102 20.067 21.193 20.4842C20.7711 20.9061 20.3727 21.1639 19.8149 21.3795C19.393 21.5436 18.7555 21.7404 17.5883 21.792C16.3227 21.8482 15.943 21.8623 12.7415 21.8623C9.53521 21.8623 9.15552 21.8482 7.89458 21.792C6.72271 21.7404 6.08989 21.5436 5.66802 21.3795C5.11021 21.1639 4.70708 20.9014 4.28989 20.4842C3.86802 20.0623 3.61021 19.6639 3.39458 19.1061C3.23052 18.6842 3.03364 18.0467 2.98208 16.8795C2.92583 15.6139 2.91177 15.2342 2.91177 12.0326C2.91177 8.82637 2.92583 8.44668 2.98208 7.18574C3.03364 6.01387 3.23052 5.38105 3.39458 4.95918C3.61021 4.40137 3.87271 3.99824 4.28989 3.58105C4.71177 3.15918 5.11021 2.90137 5.66802 2.68574C6.08989 2.52168 6.72739 2.3248 7.89458 2.27324C9.15552 2.21699 9.53521 2.20293 12.7415 2.20293ZM12.7415 0.0419922C9.48364 0.0419922 9.07583 0.0560547 7.79614 0.112305C6.52114 0.168555 5.64458 0.374805 4.88521 0.670117C4.09302 0.979492 3.42271 1.3873 2.75708 2.05762C2.08677 2.72324 1.67896 3.39356 1.36958 4.18106C1.07427 4.94512 0.868018 5.81699 0.811768 7.09199C0.755518 8.37637 0.741455 8.78418 0.741455 12.042C0.741455 15.2998 0.755518 15.7076 0.811768 16.9873C0.868018 18.2623 1.07427 19.1389 1.36958 19.8982C1.67896 20.6904 2.08677 21.3607 2.75708 22.0264C3.42271 22.692 4.09302 23.1045 4.88052 23.4092C5.64458 23.7045 6.51646 23.9107 7.79146 23.967C9.07114 24.0232 9.47896 24.0373 12.7368 24.0373C15.9946 24.0373 16.4024 24.0232 17.6821 23.967C18.9571 23.9107 19.8336 23.7045 20.593 23.4092C21.3805 23.1045 22.0508 22.692 22.7165 22.0264C23.3821 21.3607 23.7946 20.6904 24.0993 19.9029C24.3946 19.1389 24.6008 18.267 24.6571 16.992C24.7133 15.7123 24.7274 15.3045 24.7274 12.0467C24.7274 8.78887 24.7133 8.38105 24.6571 7.10137C24.6008 5.82637 24.3946 4.9498 24.0993 4.19043C23.804 3.39355 23.3961 2.72324 22.7258 2.05762C22.0602 1.39199 21.3899 0.979492 20.6024 0.674805C19.8383 0.379492 18.9665 0.173242 17.6915 0.116992C16.4071 0.0560547 15.9993 0.0419922 12.7415 0.0419922Z" fill="#A1A1AA"/>
<path d="M12.7415 5.87793C9.33833 5.87793 6.57739 8.63887 6.57739 12.042C6.57739 15.4451 9.33833 18.2061 12.7415 18.2061C16.1446 18.2061 18.9055 15.4451 18.9055 12.042C18.9055 8.63887 16.1446 5.87793 12.7415 5.87793ZM12.7415 16.0404C10.5336 16.0404 8.74302 14.2498 8.74302 12.042C8.74302 9.83418 10.5336 8.04355 12.7415 8.04355C14.9493 8.04355 16.7399 9.83418 16.7399 12.042C16.7399 14.2498 14.9493 16.0404 12.7415 16.0404Z" fill="#A1A1AA"/>
<path d="M20.5883 5.63438C20.5883 6.43125 19.9415 7.07344 19.1493 7.07344C18.3524 7.07344 17.7102 6.42657 17.7102 5.63438C17.7102 4.8375 18.3571 4.19531 19.1493 4.19531C19.9415 4.19531 20.5883 4.84219 20.5883 5.63438Z" fill="#A1A1AA"/>
</g>
<defs>
<clipPath id="clip0_6305_9915">
<rect width="23.9859" height="23.9953" fill="white" transform="translate(0.741455 0.0419922)"/>
</clipPath>
</defs>
</svg>
