<svg width="25" height="25" viewBox="0 0 25 25" fill="none" xmlns="http://www.w3.org/2000/svg">
<g clip-path="url(#clip0_6305_9920)">
<path d="M22.951 0.0395508H2.49941C1.51973 0.0395508 0.727539 0.812988 0.727539 1.76924V22.3052C0.727539 23.2614 1.51973 24.0396 2.49941 24.0396H22.951C23.9307 24.0396 24.7275 23.2614 24.7275 22.3099V1.76924C24.7275 0.812988 23.9307 0.0395508 22.951 0.0395508ZM7.84785 20.4911H4.28535V9.03486H7.84785V20.4911ZM6.0666 7.47393C4.92285 7.47393 3.99941 6.55049 3.99941 5.41143C3.99941 4.27236 4.92285 3.34893 6.0666 3.34893C7.20566 3.34893 8.1291 4.27236 8.1291 5.41143C8.1291 6.5458 7.20566 7.47393 6.0666 7.47393ZM21.1791 20.4911H17.6213V14.9224C17.6213 13.5958 17.5979 11.8849 15.7697 11.8849C13.9182 11.8849 13.6369 13.3333 13.6369 14.8286V20.4911H10.0838V9.03486H13.4963V10.6005H13.5432C14.0166 9.70049 15.1791 8.74893 16.9088 8.74893C20.5135 8.74893 21.1791 11.1208 21.1791 14.2052V20.4911V20.4911Z" fill="#A1A1AA"/>
</g>
<defs>
<clipPath id="clip0_6305_9920">
<rect width="24" height="24" fill="white" transform="translate(0.727539 0.0395508)"/>
</clipPath>
</defs>
</svg>
