<svg width="166" height="58" viewBox="0 0 166 58" fill="none" xmlns="http://www.w3.org/2000/svg">
<path fill-rule="evenodd" clip-rule="evenodd" d="M52.2597 31.1642C52.3656 31.1642 52.4709 31.1613 52.5756 31.1559L52.2597 31.1642ZM58.4145 25.2936C58.4195 25.1926 58.422 25.091 58.422 24.9889L58.4145 25.2936ZM52.2597 9.10953C52.1537 9.10953 52.0483 9.11236 51.9435 9.11773L52.2597 9.10953ZM46.0975 15.2848C46.0975 15.4119 46.1002 15.536 46.1054 15.6572L46.0975 15.2848ZM33.5382 9.11298L33.2607 9.10953C33.3535 9.10953 33.446 9.11068 33.5382 9.11298ZM32.9769 31.1606C33.0706 31.163 33.1665 31.1642 33.2607 31.1642L32.9769 31.1606ZM22.2567 20.1369L22.2606 20.4216C22.2582 20.327 22.2567 20.2321 22.2567 20.1369Z" fill="#232323"/>
<path fill-rule="evenodd" clip-rule="evenodd" d="M33.5382 9.11298C35.9516 9.1743 38.179 10.0157 39.9661 11.3946C38.1775 10.0145 35.9541 9.17299 33.5382 9.11298ZM51.6449 21.2984C51.9155 21.3875 52.1831 21.4756 52.4442 21.5661L51.6449 21.2984ZM46.1054 15.6572C46.1716 17.175 46.6447 18.2405 47.3492 19.0257C46.6463 18.2425 46.1736 17.1803 46.1057 15.6683L46.1054 15.6572ZM52.4309 28.5135L52.2597 28.5176C52.3171 28.5176 52.3741 28.5162 52.4309 28.5135ZM58.4142 25.3057C58.3447 26.6679 57.8292 27.9172 57.0122 28.9089C57.8315 27.9142 58.3474 26.6604 58.4145 25.2936L58.4142 25.3057ZM49.5152 17.3287C49.0707 16.8708 48.7874 16.2865 48.7443 15.4985L48.7384 15.2848C48.7384 16.1823 49.0314 16.8303 49.5152 17.3287ZM52.0903 11.7602L52.2597 11.7561C52.2029 11.7561 52.1464 11.7575 52.0903 11.7602ZM69.1361 11.7663L68.7191 11.7561C68.859 11.7561 68.998 11.7595 69.1361 11.7663ZM41.6238 20.1369L41.6131 20.5756C41.6202 20.4306 41.6238 20.2844 41.6238 20.1369ZM33.2607 28.5176L32.8415 28.5073C32.9803 28.5142 33.1201 28.5176 33.2607 28.5176ZM24.8976 20.1369C24.8976 21.7789 25.368 23.3101 26.1811 24.6026C25.4396 23.4239 24.9832 22.0468 24.9086 20.5681L24.8976 20.1369ZM33.2607 11.7561L33.6778 11.7663C33.5396 11.7595 33.4006 11.7561 33.2607 11.7561ZM84.2075 20.5681C84.2006 20.4275 84.1969 20.2792 84.1969 20.1369L84.2036 20.4074L84.2075 20.5681ZM92.141 28.5073C92.2797 28.5142 92.4194 28.5176 92.5599 28.5176L92.141 28.5073ZM100.923 20.1369C100.923 20.2881 100.919 20.438 100.912 20.5866L100.923 20.1369ZM11.4347 2.65749C11.292 2.65025 11.1485 2.64656 11.004 2.64656L11.4347 2.65749ZM2.65153 11.4645C2.64452 11.32 2.64096 11.1743 2.64096 11.0273L2.65153 11.4645Z" fill="#232323"/>
<path fill-rule="evenodd" clip-rule="evenodd" d="M2.64096 31.6442V18.2171C4.6657 20.5549 7.6588 22.0547 11.004 22.0547C17.0782 22.0547 22.008 17.1144 22.008 11.0273C22.008 4.94024 17.0782 0 11.004 0C4.9298 0 0 4.94024 0 11.0273V31.6442H2.64096ZM11.004 19.4081C15.6257 19.4081 19.3671 15.6588 19.3671 11.0273C19.3671 10.1767 19.2409 9.3559 19.0062 8.58257C18.7868 7.85943 18.4725 7.17784 18.0778 6.55232C17.6924 5.94144 17.2304 5.38404 16.7052 4.89364C15.3097 3.59064 13.4685 2.76068 11.4347 2.65749L11.004 2.64656C6.38233 2.64656 2.64096 6.39585 2.64096 11.0273L2.65153 11.4645L2.65187 11.4784C2.82362 14.9047 4.94398 17.6119 7.80322 18.7809C8.79771 19.1876 9.88161 19.4081 11.004 19.4081Z" fill="#232323"/>
<path fill-rule="evenodd" clip-rule="evenodd" d="M44.2647 31.1642V20.1369C44.2647 17.3779 43.2519 14.8545 41.5789 12.9199C39.6171 10.6515 36.7474 9.1927 33.5382 9.11298L33.2607 9.10953C27.1865 9.10953 22.2567 14.0498 22.2567 20.1369L22.2606 20.4216C22.3732 24.8647 25.1122 28.6573 28.9788 30.2972C29.7618 30.6292 30.591 30.873 31.4541 31.0161C31.9519 31.0986 32.459 31.1475 32.9769 31.1606L33.2607 31.1642C36.6059 31.1642 39.599 29.6645 41.6238 27.3267V31.1642H44.2647ZM24.8976 20.1369C24.8976 21.9339 25.4609 23.5981 26.4202 24.962C27.8561 27.0036 30.1795 28.3725 32.83 28.507L32.8415 28.5073C32.9803 28.5142 33.1201 28.5176 33.2607 28.5176C34.3831 28.5176 35.467 28.2971 36.4615 27.8905C39.3208 26.7214 41.4412 24.0141 41.6128 20.5875L41.6131 20.5756C41.6202 20.4306 41.6238 20.2844 41.6238 20.1369C41.6238 19.5579 41.5653 18.9928 41.454 18.447C40.7025 14.763 37.5421 11.962 33.6914 11.7666L33.6778 11.7663C33.5396 11.7595 33.4006 11.7561 33.2607 11.7561C28.639 11.7561 24.8976 15.5054 24.8976 20.1369Z" fill="#232323"/>
<path fill-rule="evenodd" clip-rule="evenodd" d="M46.0975 31.1642H52.2597L52.5756 31.1559C53.9348 31.0863 55.1814 30.57 56.1712 29.7515C57.4702 28.6771 58.3267 27.0822 58.4145 25.2936L58.422 24.9889C58.422 20.8015 55.5062 19.8417 52.8746 18.9753C52.3335 18.7972 51.8045 18.6231 51.3153 18.4256C49.8477 17.8333 48.7384 17.0315 48.7384 15.2848C48.7384 14.7996 48.8375 14.3365 49.0163 13.9147C49.5304 12.7018 50.7041 11.8307 52.0796 11.7604L52.0903 11.7602C52.1464 11.7575 52.2029 11.7561 52.2597 11.7561H58.422V9.10953H52.2597L51.9435 9.11773C49.9913 9.21786 48.2714 10.2395 47.2113 11.7544C46.51 12.7567 46.0975 13.9748 46.0975 15.2848L46.1054 15.6572C46.2066 17.98 47.2611 19.2436 48.6394 20.0642C49.5593 20.6118 50.6235 20.9622 51.6449 21.2984C51.9155 21.3875 52.1831 21.4756 52.4442 21.5661C52.8357 21.7018 53.2126 21.8429 53.5632 22.001C54.6444 22.4884 55.4755 23.1367 55.7126 24.2827C55.7574 24.4995 55.781 24.7342 55.781 24.9889C55.781 25.4741 55.682 25.9372 55.5032 26.359C54.9891 27.5718 53.8156 28.4428 52.4403 28.5133L52.4309 28.5135C52.3741 28.5162 52.3171 28.5176 52.2597 28.5176H46.0975V31.1642Z" fill="#232323"/>
<path fill-rule="evenodd" clip-rule="evenodd" d="M60.2668 31.1642H62.9077V11.7561H68.7191C68.859 11.7561 68.998 11.7595 69.1361 11.7663L69.15 11.7666C72.4302 11.9331 75.2094 13.9904 76.4254 16.8735C76.8484 17.8763 77.0822 18.979 77.0822 20.1369V31.1642H79.7231V20.1369C79.7231 14.0498 74.7933 9.10953 68.7191 9.10953H62.9077V0H60.2668V31.1642Z" fill="#232323"/>
<path fill-rule="evenodd" clip-rule="evenodd" d="M100.923 27.3267V31.1642H103.564V20.1369C103.564 14.0498 98.6341 9.10953 92.5599 9.10953C86.4857 9.10953 81.5559 14.0498 81.5559 20.1369L81.5596 20.4216C81.5972 21.9064 81.9281 23.3186 82.4964 24.602C84.063 28.1397 87.4332 30.6995 91.4353 31.1072C91.7134 31.1356 91.9946 31.1535 92.2784 31.1606L92.5599 31.1642C95.9052 31.1642 98.8982 29.6645 100.923 27.3267ZM100.912 20.5866C100.904 20.7356 100.893 20.8843 100.878 21.0306C100.436 25.4162 96.769 28.5176 92.5599 28.5176C92.4194 28.5176 92.2797 28.5142 92.141 28.5073L92.1289 28.507C87.8504 28.2898 84.424 24.8558 84.2075 20.5681C84.2006 20.4275 84.1969 20.2792 84.1969 20.1369C84.1969 15.5054 87.9382 11.7561 92.5599 11.7561C97.1816 11.7561 100.923 15.5054 100.923 20.1369C100.923 20.2881 100.919 20.438 100.912 20.5866Z" fill="#232323"/>
<path fill-rule="evenodd" clip-rule="evenodd" d="M92.5599 31.1642L92.2784 31.1606C92.372 31.163 92.4658 31.1642 92.5599 31.1642ZM81.5559 20.1369L81.5596 20.4216C81.5572 20.327 81.5559 20.2321 81.5559 20.1369ZM92.141 28.5073L92.5599 28.5176C92.4194 28.5176 92.2797 28.5142 92.141 28.5073ZM84.2075 20.5681L84.2036 20.4074L84.2011 20.4074C84.2027 20.4588 84.205 20.5169 84.2075 20.5681Z" fill="#232323"/>
<path fill-rule="evenodd" clip-rule="evenodd" d="M156.106 9.01913C159.361 9.01913 162.295 10.3887 164.357 12.58L164.816 13.0673L164.166 13.2253C163.539 13.3781 162.941 13.6055 162.382 13.898L162.144 14.0234L161.943 13.8425C160.399 12.4538 158.352 11.6087 156.106 11.6087C151.785 11.6087 148.201 14.7393 147.516 18.8415L147.338 19.9056L145.417 16.5947L145.48 16.4237C147.06 12.1034 151.222 9.01915 156.106 9.01913Z" fill="#232323"/>
<path fill-rule="evenodd" clip-rule="evenodd" d="M140.464 31.0907H143.06V21.8133L143.008 21.7229L140.464 17.3381V31.0907Z" fill="#3B82F6"/>
<path d="M156.106 9.01913C159.361 9.01913 162.295 10.3887 164.357 12.58L164.816 13.0673L164.166 13.2253C163.539 13.3781 162.941 13.6055 162.382 13.898L162.144 14.0234L161.943 13.8425C160.399 12.4538 158.352 11.6087 156.106 11.6087C151.785 11.6087 148.201 14.7393 147.516 18.8415L147.338 19.9056L145.417 16.5947L145.48 16.4237C147.06 12.1034 151.222 9.01915 156.106 9.01913Z" fill="#22C55E"/>
<path d="M141.141 11.6467C139.723 10.0364 137.641 9.01913 135.321 9.01913C133.002 9.01924 130.92 10.0365 129.502 11.6467C129.278 11.9011 129.073 12.1714 128.884 12.4539C128.694 12.1716 128.489 11.901 128.265 11.6467C126.848 10.0365 124.765 9.01918 122.446 9.01913C120.472 9.01913 118.672 9.75686 117.306 10.9679V9.01913H114.709L114.711 31.0912H117.307L117.306 16.7217C117.306 13.9003 119.604 11.6087 122.446 11.6087C125.287 11.6088 127.586 13.9003 127.586 16.7217V31.0727H130.182V16.7217C130.182 13.9004 132.48 11.6089 135.321 11.6087C136.553 11.6087 137.56 11.8911 138.395 12.4546C139.232 13.0199 139.927 13.8885 140.499 15.1111L140.505 15.1248L140.512 15.1377L140.629 15.3444L142.406 18.4805L145.324 23.6694L145.336 23.7067L145.362 23.7485C145.917 24.6394 146.309 25.1709 146.763 25.7847L146.874 25.9353C146.979 26.0772 147.088 26.2251 147.203 26.3844C149.256 29.2156 152.6 31.0587 156.375 31.0588C159.172 31.0588 161.733 30.0474 163.707 28.372L164.216 27.9395L163.589 27.71C162.986 27.4886 162.417 27.1953 161.894 26.8412L161.67 26.6899L161.451 26.8465C160.022 27.8679 158.27 28.47 156.375 28.47C153.897 28.47 151.662 27.4403 150.076 25.7877C149.104 24.774 148.432 23.8988 147.706 22.6145L143.009 14.5099L142.7 13.9238C142.273 13.0709 141.74 12.3267 141.141 11.6467Z" fill="#3B82F6"/>
<line y1="42.2033" x2="164.728" y2="42.2033" stroke="#71717A"/>
<path d="M2.44978 53.0949H4.23812V55.4983C3.96981 55.5864 3.69334 55.6519 3.4087 55.6949C3.12639 55.7378 2.81025 55.7593 2.46028 55.7593C1.92833 55.7593 1.4792 55.6564 1.1129 55.4508C0.748933 55.2451 0.472458 54.9525 0.283475 54.5728C0.0944916 54.1909 0 53.7378 0 53.2135C0 52.7005 0.103824 52.2531 0.311472 51.8712C0.521453 51.4893 0.823593 51.1932 1.21789 50.983C1.61452 50.7706 2.09048 50.6644 2.64576 50.6644C2.93041 50.6644 3.19988 50.6904 3.45419 50.7424C3.71084 50.7921 3.94881 50.8633 4.16813 50.9559L3.94065 51.4576C3.75167 51.3785 3.54285 51.3107 3.3142 51.2542C3.08789 51.1977 2.85341 51.1695 2.61077 51.1695C2.19314 51.1695 1.835 51.2531 1.53636 51.4203C1.24006 51.5876 1.01258 51.8237 0.853924 52.1288C0.697604 52.4339 0.619445 52.7955 0.619445 53.2135C0.619445 53.6271 0.688272 53.9875 0.825926 54.2949C0.963581 54.6 1.17823 54.8372 1.46987 55.0067C1.76151 55.1762 2.13714 55.261 2.59677 55.261C2.82775 55.261 3.02606 55.2485 3.19172 55.2237C3.35737 55.1966 3.50785 55.1649 3.64318 55.1288V53.6101H2.44978V53.0949Z" fill="#71717A"/>
<path d="M8.61408 51.9763V55.6915H8.13812L8.05413 55.1694H8.02263C7.9433 55.2983 7.84065 55.4067 7.71466 55.4949C7.58867 55.583 7.44635 55.6485 7.28769 55.6915C7.13138 55.7367 6.96456 55.7593 6.78724 55.7593C6.48393 55.7593 6.22962 55.7118 6.02431 55.6169C5.81899 55.522 5.66384 55.3751 5.55885 55.1762C5.45619 54.9774 5.40486 54.722 5.40486 54.4101V51.9763H5.99281V54.3695C5.99281 54.6791 6.06514 54.9107 6.20979 55.0644C6.35444 55.2158 6.57492 55.2915 6.87123 55.2915C7.15587 55.2915 7.38219 55.2395 7.55017 55.1355C7.72049 55.0316 7.84298 54.879 7.91764 54.6779C7.9923 54.4745 8.02963 54.2259 8.02963 53.9322V51.9763H8.61408Z" fill="#71717A"/>
<path d="M10.4808 51.9763V55.6915H9.89981V51.9763H10.4808ZM10.1973 50.5864C10.2929 50.5864 10.3746 50.617 10.4423 50.678C10.5123 50.7367 10.5472 50.8294 10.5472 50.9559C10.5472 51.0802 10.5123 51.1729 10.4423 51.2339C10.3746 51.2949 10.2929 51.3254 10.1973 51.3254C10.097 51.3254 10.013 51.2949 9.9453 51.2339C9.87997 51.1729 9.84731 51.0802 9.84731 50.9559C9.84731 50.8294 9.87997 50.7367 9.9453 50.678C10.013 50.617 10.097 50.5864 10.1973 50.5864Z" fill="#71717A"/>
<path d="M13.1349 55.7593C12.6496 55.7593 12.2646 55.5988 11.98 55.2779C11.6977 54.957 11.5565 54.4802 11.5565 53.8474C11.5565 53.2079 11.7012 52.7254 11.9905 52.4C12.2798 52.0723 12.6647 51.9085 13.1454 51.9085C13.3483 51.9085 13.5257 51.9345 13.6773 51.9864C13.829 52.0384 13.9596 52.1085 14.0693 52.1966C14.1789 52.2825 14.2711 52.3808 14.3458 52.4915H14.3877C14.3784 52.4215 14.3691 52.3254 14.3598 52.2034C14.3504 52.0813 14.3458 51.9819 14.3458 51.9051V50.417H14.9267V55.6915H14.4577L14.3702 55.1627H14.3458C14.2734 55.2734 14.1813 55.374 14.0693 55.4644C13.9596 55.5547 13.8278 55.6271 13.6738 55.6813C13.5222 55.7333 13.3425 55.7593 13.1349 55.7593ZM13.2259 55.2915C13.6365 55.2915 13.927 55.1785 14.0973 54.9525C14.2676 54.7265 14.3528 54.3909 14.3528 53.9457V53.844C14.3528 53.3717 14.2711 53.009 14.1078 52.7559C13.9468 52.5028 13.6528 52.3763 13.2259 52.3763C12.8689 52.3763 12.6017 52.5096 12.4244 52.7762C12.2471 53.0407 12.1584 53.4022 12.1584 53.861C12.1584 54.3175 12.2459 54.67 12.4209 54.9186C12.5982 55.1672 12.8666 55.2915 13.2259 55.2915Z" fill="#71717A"/>
<path d="M16.7969 51.9763V55.6915H16.2159V51.9763H16.7969ZM16.5134 50.5864C16.6091 50.5864 16.6907 50.617 16.7584 50.678C16.8284 50.7367 16.8634 50.8294 16.8634 50.9559C16.8634 51.0802 16.8284 51.1729 16.7584 51.2339C16.6907 51.2949 16.6091 51.3254 16.5134 51.3254C16.4131 51.3254 16.3291 51.2949 16.2614 51.2339C16.1961 51.1729 16.1634 51.0802 16.1634 50.9559C16.1634 50.8294 16.1961 50.7367 16.2614 50.678C16.3291 50.617 16.4131 50.5864 16.5134 50.5864Z" fill="#71717A"/>
<path d="M19.9024 51.9085C20.3574 51.9085 20.7015 52.0169 20.9349 52.2339C21.1682 52.4486 21.2848 52.7943 21.2848 53.2712V55.6915H20.7109V53.3084C20.7109 52.9988 20.6374 52.7672 20.4904 52.6135C20.3457 52.4599 20.1229 52.383 19.822 52.383C19.3973 52.383 19.0987 52.4994 18.926 52.7322C18.7534 52.9649 18.6671 53.3028 18.6671 53.7457V55.6915H18.0861V51.9763H18.5551L18.6426 52.5118H18.6741C18.7557 52.3808 18.8595 52.2712 18.9855 52.183C19.1115 52.0926 19.2527 52.0248 19.409 51.9796C19.5653 51.9322 19.7298 51.9085 19.9024 51.9085Z" fill="#71717A"/>
<path d="M23.61 57.3592C23.106 57.3592 22.7175 57.2677 22.4446 57.0847C22.1716 56.9039 22.0351 56.6497 22.0351 56.322C22.0351 56.0892 22.1109 55.8903 22.2626 55.7254C22.4166 55.5604 22.6289 55.4508 22.8995 55.3966C22.7992 55.3514 22.7129 55.2836 22.6405 55.1932C22.5706 55.1028 22.5356 54.9988 22.5356 54.8813C22.5356 54.7457 22.5741 54.6271 22.651 54.5254C22.7304 54.4214 22.8505 54.322 23.0115 54.2271C22.8109 54.148 22.6475 54.0147 22.5216 53.8271C22.3979 53.6373 22.3361 53.4169 22.3361 53.1661C22.3361 52.8994 22.3932 52.6723 22.5076 52.4847C22.6219 52.2949 22.7875 52.1503 23.0045 52.0508C23.2215 51.9514 23.484 51.9017 23.7919 51.9017C23.8596 51.9017 23.9273 51.9051 23.9949 51.9119C24.0649 51.9164 24.1314 51.9243 24.1944 51.9356C24.2574 51.9446 24.3122 51.9559 24.3589 51.9695H25.6748V52.3322L24.9678 52.4169C25.0378 52.5051 25.0962 52.6113 25.1428 52.7356C25.1895 52.8599 25.2128 52.9977 25.2128 53.1491C25.2128 53.5197 25.0833 53.8147 24.8244 54.0339C24.5654 54.2508 24.2096 54.3593 23.7569 54.3593C23.6496 54.3593 23.54 54.3502 23.428 54.3322C23.3137 54.3932 23.2262 54.461 23.1655 54.5356C23.1072 54.6101 23.078 54.696 23.078 54.7932C23.078 54.8655 23.1002 54.9231 23.1445 54.9661C23.1912 55.009 23.2577 55.0406 23.344 55.061C23.4303 55.079 23.5341 55.0881 23.6555 55.0881H24.3309C24.7485 55.0881 25.0682 55.1728 25.2898 55.3423C25.5138 55.5118 25.6258 55.7593 25.6258 56.0847C25.6258 56.496 25.4531 56.8112 25.1078 57.0304C24.7625 57.2496 24.2632 57.3592 23.61 57.3592ZM23.6275 56.9186C23.9448 56.9186 24.2072 56.8869 24.4149 56.8237C24.6249 56.7626 24.7812 56.6734 24.8838 56.5559C24.9888 56.4406 25.0413 56.3028 25.0413 56.1423C25.0413 55.9932 25.0063 55.8802 24.9363 55.8033C24.8663 55.7288 24.7637 55.679 24.6284 55.6542C24.493 55.6271 24.3274 55.6135 24.1314 55.6135H23.4665C23.2938 55.6135 23.1433 55.6395 23.015 55.6915C22.8867 55.7434 22.7875 55.8203 22.7175 55.922C22.6499 56.0237 22.616 56.1502 22.616 56.3016C22.616 56.5028 22.7035 56.6553 22.8785 56.7593C23.0535 56.8655 23.3032 56.9186 23.6275 56.9186ZM23.7779 53.9491C24.0556 53.9491 24.2644 53.8813 24.4044 53.7457C24.5444 53.6101 24.6144 53.4124 24.6144 53.1525C24.6144 52.8746 24.5432 52.6666 24.4009 52.5288C24.2586 52.3887 24.0486 52.3186 23.7709 52.3186C23.505 52.3186 23.2997 52.3909 23.155 52.5356C23.0127 52.6779 22.9415 52.887 22.9415 53.1627C22.9415 53.4158 23.0138 53.6101 23.1585 53.7457C23.3032 53.8813 23.5096 53.9491 23.7779 53.9491Z" fill="#71717A"/>
<path d="M29.0897 55.6915H28.4947V50.7356H31.3435V51.2441H29.0897V53.061H31.207V53.5661H29.0897V55.6915Z" fill="#71717A"/>
<path d="M32.7482 51.9763V55.6915H32.1672V51.9763H32.7482ZM32.4647 50.5864C32.5604 50.5864 32.642 50.617 32.7097 50.678C32.7797 50.7367 32.8147 50.8294 32.8147 50.9559C32.8147 51.0802 32.7797 51.1729 32.7097 51.2339C32.642 51.2949 32.5604 51.3254 32.4647 51.3254C32.3644 51.3254 32.2804 51.2949 32.2127 51.2339C32.1474 51.1729 32.1147 51.0802 32.1147 50.9559C32.1147 50.8294 32.1474 50.7367 32.2127 50.678C32.2804 50.617 32.3644 50.5864 32.4647 50.5864Z" fill="#71717A"/>
<path d="M35.8537 51.9085C36.3087 51.9085 36.6528 52.0169 36.8862 52.2339C37.1195 52.4486 37.2361 52.7943 37.2361 53.2712V55.6915H36.6622V53.3084C36.6622 52.9988 36.5887 52.7672 36.4417 52.6135C36.297 52.4599 36.0742 52.383 35.7733 52.383C35.3486 52.383 35.05 52.4994 34.8773 52.7322C34.7047 52.9649 34.6184 53.3028 34.6184 53.7457V55.6915H34.0374V51.9763H34.5064L34.5939 52.5118H34.6254C34.707 52.3808 34.8108 52.2712 34.9368 52.183C35.0628 52.0926 35.204 52.0248 35.3603 51.9796C35.5166 51.9322 35.6811 51.9085 35.8537 51.9085Z" fill="#71717A"/>
<path d="M39.9252 51.9152C40.3825 51.9152 40.722 52.0147 40.9436 52.2135C41.1653 52.4124 41.2761 52.7299 41.2761 53.1661V55.6915H40.8526L40.7407 55.1423H40.7127C40.6053 55.2779 40.4933 55.392 40.3767 55.4847C40.26 55.5751 40.1247 55.644 39.9707 55.6915C39.8191 55.7367 39.6324 55.7593 39.4108 55.7593C39.1775 55.7593 38.9698 55.7197 38.7878 55.6406C38.6082 55.5615 38.4659 55.4418 38.3609 55.2813C38.2582 55.1209 38.2069 54.9175 38.2069 54.6711C38.2069 54.3005 38.3585 54.0158 38.6618 53.8169C38.9651 53.618 39.4271 53.5096 40.0477 53.4915L40.7092 53.4644V53.2373C40.7092 52.9164 40.638 52.6915 40.4957 52.5627C40.3534 52.4339 40.1527 52.3695 39.8937 52.3695C39.6931 52.3695 39.5018 52.3977 39.3198 52.4542C39.1378 52.5107 38.9651 52.5774 38.8018 52.6542L38.6233 52.2271C38.796 52.1412 38.9943 52.0678 39.2183 52.0068C39.4423 51.9457 39.6779 51.9152 39.9252 51.9152ZM40.7022 53.861L40.1177 53.8847C39.6394 53.9028 39.3023 53.9785 39.1063 54.1118C38.9103 54.2452 38.8123 54.4339 38.8123 54.6779C38.8123 54.8903 38.8788 55.0474 39.0118 55.1491C39.1448 55.2508 39.3209 55.3016 39.5403 55.3016C39.8809 55.3016 40.1597 55.2101 40.3767 55.0271C40.5937 54.844 40.7022 54.5694 40.7022 54.2034V53.861Z" fill="#71717A"/>
<path d="M44.3467 51.9085C44.8016 51.9085 45.1458 52.0169 45.3791 52.2339C45.6124 52.4486 45.729 52.7943 45.729 53.2712V55.6915H45.1551V53.3084C45.1551 52.9988 45.0816 52.7672 44.9346 52.6135C44.79 52.4599 44.5672 52.383 44.2662 52.383C43.8415 52.383 43.5429 52.4994 43.3703 52.7322C43.1976 52.9649 43.1113 53.3028 43.1113 53.7457V55.6915H42.5303V51.9763H42.9993L43.0868 52.5118H43.1183C43.1999 52.3808 43.3038 52.2712 43.4298 52.183C43.5557 52.0926 43.6969 52.0248 43.8532 51.9796C44.0095 51.9322 44.174 51.9085 44.3467 51.9085Z" fill="#71717A"/>
<path d="M48.5196 55.7593C48.1743 55.7593 47.8699 55.6903 47.6062 55.5525C47.3426 55.4146 47.1373 55.2045 46.9903 54.922C46.8433 54.6395 46.7698 54.2836 46.7698 53.8542C46.7698 53.4045 46.8468 53.0373 47.0008 52.7525C47.1571 52.4655 47.3717 52.2531 47.6447 52.1152C47.9177 51.9774 48.228 51.9085 48.5756 51.9085C48.767 51.9085 48.9513 51.9277 49.1286 51.9661C49.3082 52.0022 49.4552 52.0486 49.5696 52.1051L49.3946 52.5763C49.2779 52.5311 49.1426 52.4904 48.9886 52.4542C48.837 52.4181 48.6946 52.4 48.5616 52.4C48.2957 52.4 48.074 52.4553 47.8967 52.5661C47.7217 52.6768 47.5899 52.8395 47.5012 53.0542C47.4149 53.2689 47.3717 53.5333 47.3717 53.8474C47.3717 54.148 47.4137 54.4045 47.4977 54.6169C47.5841 54.8293 47.7112 54.992 47.8792 55.105C48.0495 55.2158 48.2618 55.2711 48.5161 55.2711C48.7191 55.2711 48.9023 55.2508 49.0656 55.2101C49.2289 55.1672 49.3771 55.1175 49.5101 55.061V55.5627C49.3817 55.6259 49.2382 55.6745 49.0796 55.7084C48.9233 55.7423 48.7366 55.7593 48.5196 55.7593Z" fill="#71717A"/>
<path d="M51.0583 51.9763V55.6915H50.4773V51.9763H51.0583ZM50.7748 50.5864C50.8704 50.5864 50.9521 50.617 51.0198 50.678C51.0898 50.7367 51.1248 50.8294 51.1248 50.9559C51.1248 51.0802 51.0898 51.1729 51.0198 51.2339C50.9521 51.2949 50.8704 51.3254 50.7748 51.3254C50.6745 51.3254 50.5905 51.2949 50.5228 51.2339C50.4575 51.1729 50.4248 51.0802 50.4248 50.9559C50.4248 50.8294 50.4575 50.7367 50.5228 50.678C50.5905 50.617 50.6745 50.5864 50.7748 50.5864Z" fill="#71717A"/>
<path d="M53.7824 51.9152C54.2397 51.9152 54.5791 52.0147 54.8008 52.2135C55.0224 52.4124 55.1332 52.7299 55.1332 53.1661V55.6915H54.7098L54.5978 55.1423H54.5698C54.4625 55.2779 54.3505 55.392 54.2338 55.4847C54.1172 55.5751 53.9818 55.644 53.8279 55.6915C53.6762 55.7367 53.4896 55.7593 53.2679 55.7593C53.0346 55.7593 52.827 55.7197 52.645 55.6406C52.4653 55.5615 52.323 55.4418 52.218 55.2813C52.1153 55.1209 52.064 54.9175 52.064 54.6711C52.064 54.3005 52.2157 54.0158 52.519 53.8169C52.8223 53.618 53.2842 53.5096 53.9049 53.4915L54.5663 53.4644V53.2373C54.5663 52.9164 54.4951 52.6915 54.3528 52.5627C54.2105 52.4339 54.0098 52.3695 53.7509 52.3695C53.5502 52.3695 53.3589 52.3977 53.1769 52.4542C52.9949 52.5107 52.8223 52.5774 52.659 52.6542L52.4805 52.2271C52.6531 52.1412 52.8514 52.0678 53.0754 52.0068C53.2994 51.9457 53.5351 51.9152 53.7824 51.9152ZM54.5593 53.861L53.9748 53.8847C53.4966 53.9028 53.1594 53.9785 52.9634 54.1118C52.7675 54.2452 52.6695 54.4339 52.6695 54.6779C52.6695 54.8903 52.736 55.0474 52.8689 55.1491C53.0019 55.2508 53.1781 55.3016 53.3974 55.3016C53.738 55.3016 54.0168 55.2101 54.2338 55.0271C54.4508 54.844 54.5593 54.5694 54.5593 54.2034V53.861Z" fill="#71717A"/>
<path d="M56.9719 55.6915H56.3875V50.417H56.9719V55.6915Z" fill="#71717A"/>
<path d="M62.4516 53.0949H64.24V55.4983C63.9717 55.5864 63.6952 55.6519 63.4105 55.6949C63.1282 55.7378 62.8121 55.7593 62.4621 55.7593C61.9302 55.7593 61.481 55.6564 61.1147 55.4508C60.7508 55.2451 60.4743 54.9525 60.2853 54.5728C60.0963 54.1909 60.0018 53.7378 60.0018 53.2135C60.0018 52.7005 60.1057 52.2531 60.3133 51.8712C60.5233 51.4893 60.8254 51.1932 61.2197 50.983C61.6164 50.7706 62.0923 50.6644 62.6476 50.6644C62.9322 50.6644 63.2017 50.6904 63.456 50.7424C63.7127 50.7921 63.9507 50.8633 64.17 50.9559L63.9425 51.4576C63.7535 51.3785 63.5447 51.3107 63.316 51.2542C63.0897 51.1977 62.8553 51.1695 62.6126 51.1695C62.195 51.1695 61.8368 51.2531 61.5382 51.4203C61.2419 51.5876 61.0144 51.8237 60.8558 52.1288C60.6994 52.4339 60.6213 52.7955 60.6213 53.2135C60.6213 53.6271 60.6901 53.9875 60.8278 54.2949C60.9654 54.6 61.1801 54.8372 61.4717 55.0067C61.7633 55.1762 62.139 55.261 62.5986 55.261C62.8296 55.261 63.0279 55.2485 63.1936 55.2237C63.3592 55.1966 63.5097 55.1649 63.645 55.1288V53.6101H62.4516V53.0949Z" fill="#71717A"/>
<path d="M67.1915 51.9085C67.2685 51.9085 67.349 51.913 67.433 51.922C67.517 51.9288 67.5917 51.939 67.657 51.9525L67.5835 52.4746C67.5205 52.4587 67.4505 52.4463 67.3735 52.4373C67.2965 52.4282 67.2242 52.4237 67.1565 52.4237C67.0026 52.4237 66.8567 52.4542 66.7191 52.5152C66.5838 52.574 66.4648 52.6599 66.3621 52.7729C66.2595 52.8836 66.179 53.0181 66.1206 53.1762C66.0623 53.3322 66.0331 53.5062 66.0331 53.6983V55.6915H65.4487V51.9763H65.9317L65.9947 52.661H66.0191C66.0985 52.5231 66.1941 52.3977 66.3061 52.2847C66.4181 52.1695 66.5476 52.078 66.6946 52.0102C66.8439 51.9424 67.0096 51.9085 67.1915 51.9085Z" fill="#71717A"/>
<path d="M71.746 53.8271C71.746 54.1322 71.7052 54.4045 71.6235 54.644C71.5418 54.8836 71.424 55.0858 71.27 55.2508C71.116 55.4158 70.9294 55.5423 70.7101 55.6305C70.4931 55.7163 70.2469 55.7593 69.9716 55.7593C69.715 55.7593 69.4794 55.7163 69.2647 55.6305C69.0524 55.5423 68.8681 55.4158 68.7118 55.2508C68.5578 55.0858 68.4376 54.8836 68.3513 54.644C68.2673 54.4045 68.2253 54.1322 68.2253 53.8271C68.2253 53.4203 68.2965 53.0746 68.4388 52.7898C68.5811 52.5028 68.7841 52.2847 69.0477 52.1356C69.3137 51.9842 69.6298 51.9085 69.9961 51.9085C70.3461 51.9085 70.6517 51.9842 70.9131 52.1356C71.1767 52.287 71.3809 52.5062 71.5255 52.7932C71.6725 53.0779 71.746 53.4226 71.746 53.8271ZM68.8272 53.8271C68.8272 54.1254 68.8681 54.3841 68.9497 54.6033C69.0314 54.8226 69.1574 54.992 69.3277 55.1118C69.498 55.2316 69.7173 55.2915 69.9856 55.2915C70.2516 55.2915 70.4698 55.2316 70.6401 55.1118C70.8127 54.992 70.9399 54.8226 71.0215 54.6033C71.1032 54.3841 71.144 54.1254 71.144 53.8271C71.144 53.531 71.1032 53.2757 71.0215 53.061C70.9399 52.844 70.8139 52.6768 70.6436 52.5593C70.4733 52.4418 70.2528 52.383 69.9821 52.383C69.5832 52.383 69.2904 52.5107 69.1037 52.7661C68.9194 53.0214 68.8272 53.3751 68.8272 53.8271Z" fill="#71717A"/>
<path d="M75.9295 55.6847L75.247 53.522C75.2167 53.4293 75.1875 53.339 75.1595 53.2508C75.1339 53.1604 75.1094 53.0746 75.086 52.9932C75.065 52.9096 75.0452 52.8327 75.0265 52.7627C75.0102 52.6904 74.9962 52.6282 74.9845 52.5763H74.96C74.9507 52.6282 74.9379 52.6904 74.9215 52.7627C74.9052 52.8327 74.8854 52.9096 74.862 52.9932C74.841 53.0768 74.8177 53.1649 74.7921 53.2576C74.7664 53.348 74.7372 53.4395 74.7046 53.5322L73.9906 55.6847H73.3362L72.2793 51.9695H72.8812L73.4342 54.0203C73.4715 54.1559 73.5065 54.2904 73.5392 54.4237C73.5742 54.5548 73.6033 54.6791 73.6267 54.7966C73.6523 54.9118 73.671 55.0124 73.6827 55.0983H73.7107C73.7246 55.0418 73.7398 54.974 73.7561 54.8949C73.7748 54.8158 73.7946 54.7322 73.8156 54.644C73.839 54.5536 73.8635 54.4644 73.8891 54.3762C73.9148 54.2858 73.9405 54.2011 73.9661 54.122L74.6731 51.9695H75.2995L75.9819 54.1186C76.0169 54.2271 76.0508 54.3401 76.0834 54.4576C76.1184 54.5751 76.1499 54.6892 76.1779 54.8C76.2059 54.9084 76.2258 55.0056 76.2374 55.0915H76.2654C76.2748 55.0146 76.2923 54.9197 76.3179 54.8067C76.3436 54.6937 76.3727 54.5694 76.4054 54.4339C76.4404 54.2983 76.4766 54.1604 76.5139 54.0203L77.0739 51.9695H77.6653L76.6049 55.6847H75.9295Z" fill="#71717A"/>
<path d="M79.6615 55.2983C79.7571 55.2983 79.8551 55.2903 79.9554 55.2745C80.0558 55.2587 80.1374 55.2395 80.2004 55.2169V55.6542C80.1328 55.6836 80.0383 55.7084 79.9169 55.7288C79.798 55.7491 79.6813 55.7593 79.567 55.7593C79.364 55.7593 79.1797 55.7254 79.014 55.6576C78.8484 55.5875 78.7154 55.47 78.6151 55.305C78.5171 55.1401 78.4681 54.9118 78.4681 54.6203V52.4169H77.9221V52.1424L78.4716 51.922L78.7026 51.1153H79.0525V51.9763H80.1759V52.4169H79.0525V54.6033C79.0525 54.8361 79.1073 55.0101 79.217 55.1254C79.329 55.2406 79.4771 55.2983 79.6615 55.2983Z" fill="#71717A"/>
<path d="M81.6156 50.417V51.9932C81.6156 52.0836 81.6133 52.1751 81.6086 52.2678C81.604 52.3582 81.5958 52.4418 81.5841 52.5186H81.6226C81.702 52.3876 81.8023 52.2779 81.9236 52.1898C82.0473 52.0994 82.1872 52.0316 82.3436 51.9864C82.4999 51.939 82.6655 51.9152 82.8405 51.9152C83.1485 51.9152 83.4051 51.9627 83.6105 52.0576C83.8181 52.1525 83.9733 52.2994 84.0759 52.4983C84.1809 52.6972 84.2334 52.9548 84.2334 53.2712V55.6915H83.6594V53.3084C83.6594 52.9988 83.586 52.7672 83.439 52.6135C83.2943 52.4599 83.0715 52.383 82.7705 52.383C82.4859 52.383 82.2584 52.4361 82.0881 52.5424C81.9201 52.6463 81.7988 52.8 81.7241 53.0034C81.6518 53.2068 81.6156 53.4553 81.6156 53.7491V55.6915H81.0347V50.417H81.6156Z" fill="#71717A"/>
<path d="M86.1526 54.8847L86.1981 54.9627C86.1561 55.1276 86.1024 55.3039 86.0371 55.4915C85.9741 55.679 85.9041 55.8666 85.8271 56.0542C85.7524 56.244 85.6766 56.4214 85.5996 56.5864H85.1657C85.2147 56.4056 85.2625 56.2146 85.3091 56.0135C85.3558 55.8146 85.3978 55.618 85.4351 55.4237C85.4748 55.2271 85.5063 55.0474 85.5296 54.8847H86.1526Z" fill="#71717A"/>
<path d="M93.8441 53.2068C93.8441 53.5887 93.7939 53.9367 93.6936 54.2508C93.5933 54.5627 93.4439 54.8316 93.2456 55.0576C93.0496 55.2813 92.8058 55.4542 92.5142 55.5762C92.2226 55.6982 91.8843 55.7593 91.4993 55.7593C91.1027 55.7593 90.7562 55.6982 90.4599 55.5762C90.1659 55.4542 89.9209 55.2802 89.7249 55.0542C89.5313 54.8282 89.3855 54.5581 89.2875 54.244C89.1918 53.9299 89.144 53.5819 89.144 53.2C89.144 52.6938 89.2303 52.2497 89.403 51.8678C89.5756 51.4859 89.8369 51.1887 90.1869 50.9763C90.5392 50.7638 90.9802 50.6576 91.5098 50.6576C92.0161 50.6576 92.4419 50.7627 92.7872 50.9729C93.1348 51.183 93.3973 51.4791 93.5746 51.861C93.7542 52.2407 93.8441 52.6892 93.8441 53.2068ZM89.7704 53.2068C89.7704 53.6271 89.8323 53.9909 89.9559 54.2983C90.0796 54.6056 90.2686 54.8429 90.5229 55.0101C90.7795 55.1774 91.105 55.261 91.4993 55.261C91.8959 55.261 92.2202 55.1774 92.4722 55.0101C92.7265 54.8429 92.9143 54.6056 93.0357 54.2983C93.157 53.9909 93.2176 53.6271 93.2176 53.2068C93.2176 52.5672 93.0788 52.0678 92.8012 51.7085C92.5259 51.3469 92.0954 51.1661 91.5098 51.1661C91.1132 51.1661 90.7865 51.2486 90.5299 51.4136C90.2732 51.5785 90.0819 51.8135 89.9559 52.1186C89.8323 52.4215 89.7704 52.7842 89.7704 53.2068Z" fill="#71717A"/>
<path d="M96.7712 51.9085C97.2261 51.9085 97.5703 52.0169 97.8036 52.2339C98.0369 52.4486 98.1535 52.7943 98.1535 53.2712V55.6915H97.5796V53.3084C97.5796 52.9988 97.5061 52.7672 97.3591 52.6135C97.2145 52.4599 96.9916 52.383 96.6907 52.383C96.266 52.383 95.9674 52.4994 95.7947 52.7322C95.6221 52.9649 95.5358 53.3028 95.5358 53.7457V55.6915H94.9548V51.9763H95.4238L95.5113 52.5118H95.5428C95.6244 52.3808 95.7282 52.2712 95.8542 52.183C95.9802 52.0926 96.1214 52.0248 96.2777 51.9796C96.434 51.9322 96.5985 51.9085 96.7712 51.9085Z" fill="#71717A"/>
<path d="M100.885 51.9085C101.211 51.9085 101.491 51.9785 101.725 52.1186C101.958 52.2587 102.136 52.4553 102.26 52.7085C102.384 52.9593 102.445 53.2531 102.445 53.5898V53.9389H99.7962C99.8032 54.3751 99.9152 54.7073 100.132 54.9355C100.349 55.1638 100.655 55.2779 101.049 55.2779C101.292 55.2779 101.506 55.2564 101.693 55.2135C101.88 55.1706 102.073 55.1073 102.274 55.0237V55.5186C102.08 55.6022 101.888 55.6632 101.697 55.7016C101.508 55.7401 101.284 55.7593 101.025 55.7593C100.656 55.7593 100.334 55.6869 100.059 55.5423C99.7857 55.3954 99.5734 55.1807 99.4218 54.8983C99.2701 54.6158 99.1943 54.27 99.1943 53.861C99.1943 53.461 99.2631 53.1152 99.4008 52.8237C99.5408 52.5299 99.7367 52.3039 99.9887 52.1457C100.243 51.9876 100.542 51.9085 100.885 51.9085ZM100.878 52.3695C100.567 52.3695 100.32 52.4678 100.136 52.6644C99.9514 52.861 99.8417 53.1356 99.8067 53.4881H101.837C101.834 53.2666 101.798 53.0723 101.728 52.9051C101.66 52.7356 101.557 52.6045 101.417 52.5118C101.277 52.4169 101.097 52.3695 100.878 52.3695Z" fill="#71717A"/>
<path d="M108.384 54.3728C108.384 54.6666 108.308 54.9175 108.156 55.1254C108.007 55.331 107.797 55.4881 107.526 55.5966C107.256 55.705 106.937 55.7593 106.571 55.7593C106.377 55.7593 106.194 55.7502 106.021 55.7321C105.849 55.7141 105.69 55.6881 105.545 55.6542C105.401 55.6203 105.274 55.5785 105.164 55.5288V54.9762C105.339 55.0463 105.552 55.1118 105.804 55.1728C106.056 55.2316 106.32 55.261 106.595 55.261C106.852 55.261 107.069 55.2282 107.246 55.1627C107.424 55.0949 107.558 54.9988 107.649 54.8745C107.742 54.748 107.789 54.5966 107.789 54.4203C107.789 54.2508 107.75 54.1096 107.673 53.9966C107.596 53.8813 107.468 53.7774 107.288 53.6847C107.111 53.5898 106.868 53.4892 106.56 53.383C106.343 53.3084 106.152 53.2271 105.986 53.139C105.821 53.0486 105.682 52.9469 105.57 52.8339C105.458 52.7209 105.373 52.5898 105.314 52.4407C105.258 52.2915 105.23 52.1209 105.23 51.9288C105.23 51.6644 105.299 51.4384 105.437 51.2508C105.577 51.061 105.769 50.9164 106.014 50.8169C106.262 50.7153 106.545 50.6644 106.865 50.6644C107.138 50.6644 107.39 50.6893 107.621 50.739C107.854 50.7887 108.068 50.8554 108.261 50.939L108.076 51.4339C107.891 51.3593 107.695 51.2972 107.488 51.2475C107.282 51.1977 107.07 51.1729 106.851 51.1729C106.631 51.1729 106.446 51.2045 106.294 51.2678C106.145 51.3288 106.031 51.4158 105.951 51.5288C105.872 51.6418 105.832 51.7763 105.832 51.9322C105.832 52.1062 105.87 52.2508 105.944 52.3661C106.021 52.4813 106.143 52.5842 106.308 52.6746C106.476 52.7627 106.698 52.8553 106.973 52.9525C107.274 53.0587 107.53 53.1717 107.74 53.2915C107.95 53.409 108.11 53.5536 108.219 53.7254C108.329 53.8949 108.384 54.1107 108.384 54.3728Z" fill="#71717A"/>
<path d="M110.639 55.2983C110.734 55.2983 110.832 55.2903 110.933 55.2745C111.033 55.2587 111.115 55.2395 111.178 55.2169V55.6542C111.11 55.6836 111.016 55.7084 110.894 55.7288C110.775 55.7491 110.659 55.7593 110.544 55.7593C110.341 55.7593 110.157 55.7254 109.991 55.6576C109.826 55.5875 109.693 55.47 109.592 55.305C109.494 55.1401 109.445 54.9118 109.445 54.6203V52.4169H108.899V52.1424L109.449 51.922L109.68 51.1153H110.03V51.9763H111.153V52.4169H110.03V54.6033C110.03 54.8361 110.085 55.0101 110.194 55.1254C110.306 55.2406 110.454 55.2983 110.639 55.2983Z" fill="#71717A"/>
<path d="M113.755 51.9085C113.832 51.9085 113.912 51.913 113.996 51.922C114.08 51.9288 114.155 51.939 114.22 51.9525L114.147 52.4746C114.084 52.4587 114.014 52.4463 113.937 52.4373C113.86 52.4282 113.788 52.4237 113.72 52.4237C113.566 52.4237 113.42 52.4542 113.282 52.5152C113.147 52.574 113.028 52.6599 112.925 52.7729C112.823 52.8836 112.742 53.0181 112.684 53.1762C112.626 53.3322 112.596 53.5062 112.596 53.6983V55.6915H112.012V51.9763H112.495L112.558 52.661H112.582C112.662 52.5231 112.757 52.3977 112.869 52.2847C112.981 52.1695 113.111 52.078 113.258 52.0102C113.407 51.9424 113.573 51.9085 113.755 51.9085Z" fill="#71717A"/>
<path d="M116.437 51.9152C116.894 51.9152 117.234 52.0147 117.455 52.2135C117.677 52.4124 117.788 52.7299 117.788 53.1661V55.6915H117.364L117.252 55.1423H117.224C117.117 55.2779 117.005 55.392 116.888 55.4847C116.772 55.5751 116.636 55.644 116.482 55.6915C116.331 55.7367 116.144 55.7593 115.923 55.7593C115.689 55.7593 115.482 55.7197 115.3 55.6406C115.12 55.5615 114.978 55.4418 114.873 55.2813C114.77 55.1209 114.719 54.9175 114.719 54.6711C114.719 54.3005 114.87 54.0158 115.174 53.8169C115.477 53.618 115.939 53.5096 116.559 53.4915L117.221 53.4644V53.2373C117.221 52.9164 117.15 52.6915 117.007 52.5627C116.865 52.4339 116.664 52.3695 116.405 52.3695C116.205 52.3695 116.014 52.3977 115.832 52.4542C115.65 52.5107 115.477 52.5774 115.314 52.6542L115.135 52.2271C115.308 52.1412 115.506 52.0678 115.73 52.0068C115.954 51.9457 116.19 51.9152 116.437 51.9152ZM117.214 53.861L116.629 53.8847C116.151 53.9028 115.814 53.9785 115.618 54.1118C115.422 54.2452 115.324 54.4339 115.324 54.6779C115.324 54.8903 115.391 55.0474 115.524 55.1491C115.657 55.2508 115.833 55.3016 116.052 55.3016C116.393 55.3016 116.671 55.2101 116.888 55.0271C117.105 54.844 117.214 54.5694 117.214 54.2034V53.861Z" fill="#71717A"/>
<path d="M120.281 55.2983C120.377 55.2983 120.475 55.2903 120.575 55.2745C120.675 55.2587 120.757 55.2395 120.82 55.2169V55.6542C120.752 55.6836 120.658 55.7084 120.536 55.7288C120.417 55.7491 120.301 55.7593 120.186 55.7593C119.983 55.7593 119.799 55.7254 119.634 55.6576C119.468 55.5875 119.335 55.47 119.235 55.305C119.137 55.1401 119.088 54.9118 119.088 54.6203V52.4169H118.542V52.1424L119.091 51.922L119.322 51.1153H119.672V51.9763H120.795V52.4169H119.672V54.6033C119.672 54.8361 119.727 55.0101 119.837 55.1254C119.949 55.2406 120.097 55.2983 120.281 55.2983Z" fill="#71717A"/>
<path d="M123.131 51.9085C123.458 51.9085 123.738 51.9785 123.971 52.1186C124.204 52.2587 124.383 52.4553 124.506 52.7085C124.63 52.9593 124.692 53.2531 124.692 53.5898V53.9389H122.043C122.05 54.3751 122.162 54.7073 122.379 54.9355C122.596 55.1638 122.901 55.2779 123.296 55.2779C123.538 55.2779 123.753 55.2564 123.939 55.2135C124.126 55.1706 124.32 55.1073 124.52 55.0237V55.5186C124.327 55.6022 124.134 55.6632 123.943 55.7016C123.754 55.7401 123.53 55.7593 123.271 55.7593C122.902 55.7593 122.58 55.6869 122.305 55.5423C122.032 55.3954 121.82 55.1807 121.668 54.8983C121.517 54.6158 121.441 54.27 121.441 53.861C121.441 53.461 121.51 53.1152 121.647 52.8237C121.787 52.5299 121.983 52.3039 122.235 52.1457C122.489 51.9876 122.788 51.9085 123.131 51.9085ZM123.124 52.3695C122.814 52.3695 122.566 52.4678 122.382 52.6644C122.198 52.861 122.088 53.1356 122.053 53.4881H124.083C124.081 53.2666 124.044 53.0723 123.974 52.9051C123.907 52.7356 123.803 52.6045 123.663 52.5118C123.523 52.4169 123.343 52.3695 123.124 52.3695Z" fill="#71717A"/>
<path d="M126.807 57.3592C126.303 57.3592 125.915 57.2677 125.642 57.0847C125.369 56.9039 125.232 56.6497 125.232 56.322C125.232 56.0892 125.308 55.8903 125.46 55.7254C125.614 55.5604 125.826 55.4508 126.097 55.3966C125.996 55.3514 125.91 55.2836 125.838 55.1932C125.768 55.1028 125.733 54.9988 125.733 54.8813C125.733 54.7457 125.771 54.6271 125.848 54.5254C125.927 54.4214 126.048 54.322 126.209 54.2271C126.008 54.148 125.845 54.0147 125.719 53.8271C125.595 53.6373 125.533 53.4169 125.533 53.1661C125.533 52.8994 125.59 52.6723 125.705 52.4847C125.819 52.2949 125.985 52.1503 126.202 52.0508C126.419 51.9514 126.681 51.9017 126.989 51.9017C127.057 51.9017 127.124 51.9051 127.192 51.9119C127.262 51.9164 127.329 51.9243 127.392 51.9356C127.455 51.9446 127.509 51.9559 127.556 51.9695H128.872V52.3322L128.165 52.4169C128.235 52.5051 128.293 52.6113 128.34 52.7356C128.387 52.8599 128.41 52.9977 128.41 53.1491C128.41 53.5197 128.28 53.8147 128.021 54.0339C127.762 54.2508 127.407 54.3593 126.954 54.3593C126.847 54.3593 126.737 54.3502 126.625 54.3322C126.511 54.3932 126.423 54.461 126.363 54.5356C126.304 54.6101 126.275 54.696 126.275 54.7932C126.275 54.8655 126.297 54.9231 126.342 54.9661C126.388 55.009 126.455 55.0406 126.541 55.061C126.627 55.079 126.731 55.0881 126.853 55.0881H127.528C127.946 55.0881 128.265 55.1728 128.487 55.3423C128.711 55.5118 128.823 55.7593 128.823 56.0847C128.823 56.496 128.65 56.8112 128.305 57.0304C127.96 57.2496 127.46 57.3592 126.807 57.3592ZM126.825 56.9186C127.142 56.9186 127.404 56.8869 127.612 56.8237C127.822 56.7626 127.978 56.6734 128.081 56.5559C128.186 56.4406 128.238 56.3028 128.238 56.1423C128.238 55.9932 128.203 55.8802 128.133 55.8033C128.063 55.7288 127.961 55.679 127.825 55.6542C127.69 55.6271 127.525 55.6135 127.329 55.6135H126.664C126.491 55.6135 126.34 55.6395 126.212 55.6915C126.084 55.7434 125.985 55.8203 125.915 55.922C125.847 56.0237 125.813 56.1502 125.813 56.3016C125.813 56.5028 125.901 56.6553 126.076 56.7593C126.251 56.8655 126.5 56.9186 126.825 56.9186ZM126.975 53.9491C127.253 53.9491 127.462 53.8813 127.602 53.7457C127.741 53.6101 127.811 53.4124 127.811 53.1525C127.811 52.8746 127.74 52.6666 127.598 52.5288C127.456 52.3887 127.246 52.3186 126.968 52.3186C126.702 52.3186 126.497 52.3909 126.352 52.5356C126.21 52.6779 126.139 52.887 126.139 53.1627C126.139 53.4158 126.211 53.6101 126.356 53.7457C126.5 53.8813 126.707 53.9491 126.975 53.9491Z" fill="#71717A"/>
<path d="M129.08 51.9763H129.703L130.55 54.1322C130.599 54.2587 130.644 54.3807 130.686 54.4983C130.728 54.6135 130.765 54.7242 130.798 54.8305C130.831 54.9367 130.856 55.0395 130.875 55.1389H130.9C130.932 55.0259 130.979 54.8779 131.04 54.6949C131.1 54.5096 131.166 54.3209 131.236 54.1288L132.037 51.9763H132.663L130.994 56.2372C130.905 56.4655 130.802 56.6643 130.683 56.8338C130.566 57.0033 130.424 57.1333 130.256 57.2237C130.088 57.3163 129.885 57.3626 129.647 57.3626C129.537 57.3626 129.44 57.3559 129.356 57.3423C129.272 57.331 129.2 57.3174 129.139 57.3016V56.8508C129.191 56.8621 129.252 56.8722 129.325 56.8813C129.399 56.8903 129.476 56.8948 129.556 56.8948C129.7 56.8948 129.825 56.8677 129.93 56.8135C130.037 56.7615 130.13 56.6847 130.207 56.583C130.284 56.4813 130.35 56.3604 130.406 56.2203L130.616 55.6982L129.08 51.9763Z" fill="#71717A"/>
<path d="M136.687 51.9152C137.145 51.9152 137.484 52.0147 137.706 52.2135C137.927 52.4124 138.038 52.7299 138.038 53.1661V55.6915H137.615L137.503 55.1423H137.475C137.367 55.2779 137.255 55.392 137.139 55.4847C137.022 55.5751 136.887 55.644 136.733 55.6915C136.581 55.7367 136.394 55.7593 136.173 55.7593C135.939 55.7593 135.732 55.7197 135.55 55.6406C135.37 55.5615 135.228 55.4418 135.123 55.2813C135.02 55.1209 134.969 54.9175 134.969 54.6711C134.969 54.3005 135.121 54.0158 135.424 53.8169C135.727 53.618 136.189 53.5096 136.81 53.4915L137.471 53.4644V53.2373C137.471 52.9164 137.4 52.6915 137.258 52.5627C137.115 52.4339 136.915 52.3695 136.656 52.3695C136.455 52.3695 136.264 52.3977 136.082 52.4542C135.9 52.5107 135.727 52.5774 135.564 52.6542L135.385 52.2271C135.558 52.1412 135.756 52.0678 135.98 52.0068C136.204 51.9457 136.44 51.9152 136.687 51.9152ZM137.464 53.861L136.88 53.8847C136.401 53.9028 136.064 53.9785 135.868 54.1118C135.672 54.2452 135.574 54.4339 135.574 54.6779C135.574 54.8903 135.641 55.0474 135.774 55.1491C135.907 55.2508 136.083 55.3016 136.302 55.3016C136.643 55.3016 136.922 55.2101 137.139 55.0271C137.356 54.844 137.464 54.5694 137.464 54.2034V53.861Z" fill="#71717A"/>
<path d="M140.531 55.2983C140.627 55.2983 140.725 55.2903 140.825 55.2745C140.926 55.2587 141.007 55.2395 141.07 55.2169V55.6542C141.003 55.6836 140.908 55.7084 140.787 55.7288C140.668 55.7491 140.551 55.7593 140.437 55.7593C140.234 55.7593 140.049 55.7254 139.884 55.6576C139.718 55.5875 139.585 55.47 139.485 55.305C139.387 55.1401 139.338 54.9118 139.338 54.6203V52.4169H138.792V52.1424L139.341 51.922L139.572 51.1153H139.922V51.9763H141.046V52.4169H139.922V54.6033C139.922 54.8361 139.977 55.0101 140.087 55.1254C140.199 55.2406 140.347 55.2983 140.531 55.2983Z" fill="#71717A"/>
<path d="M145.258 51.9152C145.716 51.9152 146.055 52.0147 146.277 52.2135C146.499 52.4124 146.609 52.7299 146.609 53.1661V55.6915H146.186L146.074 55.1423H146.046C145.939 55.2779 145.827 55.392 145.71 55.4847C145.593 55.5751 145.458 55.644 145.304 55.6915C145.152 55.7367 144.966 55.7593 144.744 55.7593C144.511 55.7593 144.303 55.7197 144.121 55.6406C143.941 55.5615 143.799 55.4418 143.694 55.2813C143.591 55.1209 143.54 54.9175 143.54 54.6711C143.54 54.3005 143.692 54.0158 143.995 53.8169C144.298 53.618 144.76 53.5096 145.381 53.4915L146.042 53.4644V53.2373C146.042 52.9164 145.971 52.6915 145.829 52.5627C145.687 52.4339 145.486 52.3695 145.227 52.3695C145.026 52.3695 144.835 52.3977 144.653 52.4542C144.471 52.5107 144.298 52.5774 144.135 52.6542L143.957 52.2271C144.129 52.1412 144.328 52.0678 144.552 52.0068C144.776 51.9457 145.011 51.9152 145.258 51.9152ZM146.035 53.861L145.451 53.8847C144.973 53.9028 144.636 53.9785 144.44 54.1118C144.244 54.2452 144.146 54.4339 144.146 54.6779C144.146 54.8903 144.212 55.0474 144.345 55.1491C144.478 55.2508 144.654 55.3016 144.874 55.3016C145.214 55.3016 145.493 55.2101 145.71 55.0271C145.927 54.844 146.035 54.5694 146.035 54.2034V53.861Z" fill="#71717A"/>
<path d="M151.022 55.2983C151.117 55.2983 151.215 55.2903 151.316 55.2745C151.416 55.2587 151.498 55.2395 151.561 55.2169V55.6542C151.493 55.6836 151.398 55.7084 151.277 55.7288C151.158 55.7491 151.042 55.7593 150.927 55.7593C150.724 55.7593 150.54 55.7254 150.374 55.6576C150.209 55.5875 150.076 55.47 149.975 55.305C149.877 55.1401 149.828 54.9118 149.828 54.6203V52.4169H149.282V52.1424L149.832 51.922L150.063 51.1153H150.413V51.9763H151.536V52.4169H150.413V54.6033C150.413 54.8361 150.468 55.0101 150.577 55.1254C150.689 55.2406 150.837 55.2983 151.022 55.2983Z" fill="#71717A"/>
<path d="M152.976 51.9763V55.6915H152.395V51.9763H152.976ZM152.692 50.5864C152.788 50.5864 152.87 50.617 152.937 50.678C153.007 50.7367 153.042 50.8294 153.042 50.9559C153.042 51.0802 153.007 51.1729 152.937 51.2339C152.87 51.2949 152.788 51.3254 152.692 51.3254C152.592 51.3254 152.508 51.2949 152.44 51.2339C152.375 51.1729 152.342 51.0802 152.342 50.9559C152.342 50.8294 152.375 50.7367 152.44 50.678C152.508 50.617 152.592 50.5864 152.692 50.5864Z" fill="#71717A"/>
<path d="M158.43 51.9085C158.852 51.9085 159.17 52.0158 159.385 52.2305C159.6 52.4429 159.707 52.7853 159.707 53.2576V55.6915H159.133V53.2847C159.133 52.9842 159.065 52.7593 158.93 52.6101C158.797 52.4587 158.599 52.383 158.335 52.383C157.964 52.383 157.695 52.487 157.527 52.6949C157.359 52.9028 157.275 53.209 157.275 53.6135V55.6915H156.697V53.2847C156.697 53.0836 156.667 52.9164 156.606 52.783C156.548 52.6497 156.459 52.5503 156.34 52.4847C156.224 52.4169 156.076 52.383 155.896 52.383C155.642 52.383 155.437 52.4339 155.283 52.5356C155.129 52.6373 155.018 52.7887 154.948 52.9898C154.88 53.1887 154.846 53.4339 154.846 53.7254V55.6915H154.265V51.9763H154.734L154.822 52.5017H154.853C154.93 52.3729 155.027 52.2644 155.143 52.1763C155.26 52.0881 155.391 52.0215 155.535 51.9763C155.68 51.9311 155.834 51.9085 155.997 51.9085C156.289 51.9085 156.533 51.9616 156.729 52.0678C156.927 52.1717 157.071 52.3311 157.159 52.5457H157.191C157.317 52.3311 157.489 52.1717 157.709 52.0678C157.928 51.9616 158.168 51.9085 158.43 51.9085Z" fill="#71717A"/>
<path d="M162.435 51.9085C162.761 51.9085 163.041 51.9785 163.275 52.1186C163.508 52.2587 163.686 52.4553 163.81 52.7085C163.934 52.9593 163.996 53.2531 163.996 53.5898V53.9389H161.346C161.353 54.3751 161.465 54.7073 161.682 54.9355C161.899 55.1638 162.205 55.2779 162.599 55.2779C162.842 55.2779 163.056 55.2564 163.243 55.2135C163.43 55.1706 163.623 55.1073 163.824 55.0237V55.5186C163.63 55.6022 163.438 55.6632 163.247 55.7016C163.058 55.7401 162.834 55.7593 162.575 55.7593C162.206 55.7593 161.884 55.6869 161.609 55.5423C161.336 55.3954 161.123 55.1807 160.972 54.8983C160.82 54.6158 160.744 54.27 160.744 53.861C160.744 53.461 160.813 53.1152 160.951 52.8237C161.091 52.5299 161.287 52.3039 161.539 52.1457C161.793 51.9876 162.092 51.9085 162.435 51.9085ZM162.428 52.3695C162.117 52.3695 161.87 52.4678 161.686 52.6644C161.501 52.861 161.392 53.1356 161.357 53.4881H163.387C163.384 53.2666 163.348 53.0723 163.278 52.9051C163.21 52.7356 163.107 52.6045 162.967 52.5118C162.827 52.4169 162.647 52.3695 162.428 52.3695Z" fill="#71717A"/>
</svg>
