<svg width="14" height="14" viewBox="0 0 14 14" fill="none" xmlns="http://www.w3.org/2000/svg">
<g clip-path="url(#clip0_6706_11634)">
<path d="M12.0511 5.66289C12.1311 5.59932 12.25 5.65879 12.25 5.75928V9.95313C12.25 10.4966 11.8091 10.9375 11.2656 10.9375H2.73438C2.19092 10.9375 1.75 10.4966 1.75 9.95313V5.76133C1.75 5.65879 1.86689 5.60137 1.94893 5.66494C2.4083 6.02178 3.01738 6.475 5.10918 7.99463C5.54189 8.31045 6.27197 8.9749 7 8.9708C7.73213 8.97695 8.47656 8.29814 8.89287 7.99463C10.9847 6.475 11.5917 6.01973 12.0511 5.66289ZM7 8.3125C7.47578 8.3207 8.16074 7.71367 8.50527 7.46348C11.2267 5.48857 11.4338 5.31631 12.0613 4.82412C12.1803 4.73184 12.25 4.58828 12.25 4.43652V4.04688C12.25 3.50342 11.8091 3.0625 11.2656 3.0625H2.73438C2.19092 3.0625 1.75 3.50342 1.75 4.04688V4.43652C1.75 4.58828 1.81973 4.72979 1.93867 4.82412C2.56621 5.31426 2.77334 5.48857 5.49473 7.46348C5.83926 7.71367 6.52422 8.3207 7 8.3125Z" fill="#3B82F6"/>
</g>
<defs>
<clipPath id="clip0_6706_11634">
<rect width="10.5" height="10.5" fill="white" transform="translate(1.75 1.75)"/>
</clipPath>
</defs>
</svg>
