<svg width="14" height="14" viewBox="0 0 14 14" fill="none" xmlns="http://www.w3.org/2000/svg">
<g clip-path="url(#clip0_6706_11631)">
<path d="M11.9504 9.16974L9.65351 8.18536C9.55539 8.14354 9.44634 8.13473 9.34277 8.16025C9.23921 8.18577 9.14674 8.24425 9.07929 8.32687L8.0621 9.56964C6.46572 8.81696 5.181 7.53224 4.42832 5.93586L5.67109 4.91867C5.75388 4.85134 5.81247 4.75887 5.83801 4.65526C5.86354 4.55165 5.85462 4.44254 5.8126 4.34445L4.82822 2.04758C4.7821 1.94184 4.70053 1.85551 4.59758 1.80347C4.49463 1.75143 4.37675 1.73695 4.26426 1.76252L2.13145 2.25471C2.02299 2.27975 1.92623 2.34081 1.85696 2.42793C1.78768 2.51505 1.74998 2.62308 1.75 2.73438C1.75 7.99464 6.01357 12.25 11.2656 12.25C11.377 12.2501 11.485 12.2124 11.5722 12.1431C11.6594 12.0738 11.7205 11.977 11.7455 11.8686L12.2377 9.73575C12.2631 9.62272 12.2483 9.50436 12.1959 9.40105C12.1434 9.29775 12.0566 9.21595 11.9504 9.16974Z" fill="#3B82F6"/>
</g>
<defs>
<clipPath id="clip0_6706_11631">
<rect width="10.5" height="10.5" fill="white" transform="translate(1.75 1.75)"/>
</clipPath>
</defs>
</svg>
