<svg width="121" height="67" viewBox="0 0 121 67" fill="none" xmlns="http://www.w3.org/2000/svg">
<path d="M112.815 -27.0285C108.454 -25.9594 104.088 -24.4136 99.8017 -22.1555C96.9869 -20.6729 94.0199 -18.937 91.4694 -16.7989C87.156 -13.1829 83.5438 -8.26391 79.9811 -3.68657C76.0528 1.36076 72.0973 6.52161 67.6122 10.8958C65.1915 13.2566 62.5582 15.1123 59.6426 15.8271C56.9042 16.4996 54.3488 16.3723 52.0487 15.6732C47.208 14.2008 43.3788 10.9025 39.6661 7.80868C37.6718 6.14632 35.7023 4.45239 33.6413 2.87265C31.7864 1.45086 29.8579 -0.126193 27.582 -0.937512C21.2425 -3.19507 12.9905 -2.37128 5.61696 -1.67098C3.01624 -1.42378 0.406135 -1.19797 -2.19915 -0.918515C-6.39718 -0.468891 -10.6838 0.332254 -14.9035 0.835345C-18.5513 1.27088 -22.2016 1.36066 -25.2037 0.107177C-25.852 -0.163327 -26.5257 -0.489356 -26.9764 -0.984697C-27.6089 -1.67927 -28.3781 -2.91822 -27.4544 -4.3082C-27.402 -4.38802 -27.3442 -4.46478 -27.2817 -4.53753C-26.2124 -5.78242 -24.418 -6.24049 -23.1602 -6.61913C-22.368 -6.85153 -21.5789 -7.0391 -20.7964 -7.18099C-12.7077 -8.71528 -4.66064 -9.02887 3.14108 -9.06491C11.1107 -9.09548 19.0684 -8.77531 26.5072 -7.47203C30.6501 -6.74608 34.2664 -5.61176 37.3356 -3.06751C39.9147 -0.926967 42.1476 1.62646 44.4567 4.05974C47.3189 7.07653 50.3612 10.3059 54.5719 11.5207C56.8088 12.166 59.4571 12.0677 62.11 11.1724C64.7865 10.2721 67.1825 7.99273 69.0768 5.61554C73.5793 -0.0339067 76.7429 -6.81503 80.5577 -13.0174C82.3658 -15.9572 84.314 -18.8918 86.6436 -21.4902C88.9066 -24.0141 91.3973 -25.7324 94.0915 -27.3695C97.7573 -29.5985 101.567 -31.5814 105.311 -32.9185C106.572 -33.3673 107.83 -33.6746 109.062 -33.8351C112.335 -34.2655 115.703 -34.2694 118.184 -32.7045C118.968 -32.2104 119.771 -31.4882 120.062 -30.5107C120.886 -27.7436 114.15 -27.3261 112.815 -27.0285" fill="#22C55E"/>
<path d="M110.682 -15.8989C107.195 -14.1719 104.006 -11.9902 101.019 -9.53705C98.8758 -7.77634 96.8381 -5.81761 94.7918 -3.97712C91.3533 -0.886273 88.5028 2.92564 85.5784 6.55482C82.2831 10.6448 78.8737 14.7602 74.9985 18.2683C72.8449 20.2168 70.5854 22.0359 67.8305 23.115C64.831 24.2895 61.6727 24.5265 58.4899 24.1771C51.941 23.4538 45.5936 21.0855 39.4619 18.7875C36.2472 17.5846 33.0519 16.329 29.8351 15.1315C27.1254 14.1231 24.2714 12.8165 21.3795 12.4711C15.6585 11.7848 9.66978 14.1453 4.50219 16.2988C2.75751 17.0269 0.993191 17.7174 -0.764422 18.4022C-4.94006 20.0268 -9.45413 22.7844 -14.1188 22.0484C-14.596 21.9735 -15.0946 21.8671 -15.5351 21.6505C-16.2918 21.2775 -17.0523 20.4938 -17.1149 19.5952C-17.12 19.5352 -17.1214 19.475 -17.1191 19.4148C-17.0724 18.5077 -16.3476 17.8665 -15.7278 17.2855C-15.3502 16.9316 -14.8428 16.6279 -14.3829 16.3941C-9.34556 13.8306 -3.76998 11.9758 1.74941 10.5664C7.56953 9.07646 13.6036 7.94687 19.5686 7.81602C21.6018 7.77233 23.7038 7.82193 25.7149 8.26584C27.5873 8.67964 29.4108 9.51413 31.1701 10.2615C35.1947 11.9718 39.1161 13.9364 43.0801 15.7603C48.0731 18.062 53.3292 20.452 58.8449 21.146C61.6105 21.494 64.4549 21.2336 67.0555 20.1963C69.4605 19.2365 71.3257 17.2943 72.8641 15.2817C76.456 10.5852 78.7613 4.99586 81.7147 -0.129173C83.1876 -2.68528 84.8123 -5.18142 86.797 -7.3729C88.6219 -9.38824 90.8157 -11.0249 92.9938 -12.6154C95.7483 -14.628 98.6601 -16.5431 101.734 -17.9293C102.764 -18.3879 103.84 -18.7335 104.945 -18.96C107.454 -19.4851 110.086 -19.883 112.651 -19.5954C113.579 -19.4915 114.565 -19.2909 115.41 -18.9781C116.636 -18.5248 114.914 -17.7149 114.493 -17.5229C113.238 -16.9488 111.936 -16.481 110.683 -15.9005" fill="#3B82F6"/>
</svg>
